<svg width="54" height="55" viewBox="0 0 54 55" fill="none" xmlns="http://www.w3.org/2000/svg">
<g clip-path="url(#clip0_1405_478)">
<path d="M14.195 46.8796L15.0701 47.319C18.7169 49.5153 22.8009 50.5403 26.8852 50.5403C39.7211 50.5403 50.2232 39.9976 50.2232 27.1122C50.2232 20.9624 47.7434 14.9589 43.3676 10.5661C38.9917 6.17322 33.1571 3.68408 26.8852 3.68408C14.0493 3.68408 3.54695 14.2267 3.69291 27.2587C3.69291 31.6513 5.00567 35.8979 7.19354 39.5583L7.77694 40.437L5.44333 49.0761L14.195 46.8796Z" fill="#00E676"/>
<path d="M45.8473 8.22338C40.8879 3.09858 34.0324 0.316406 27.031 0.316406C12.1531 0.316406 0.192342 12.4697 0.338088 27.2587C0.338088 31.9443 1.65085 36.4837 3.83892 40.5835L0.0463867 54.4939L14.1951 50.8333C18.1333 53.0298 22.5091 54.0548 26.8852 54.0548C41.6173 54.0548 53.5781 41.9013 53.5781 27.1126C53.5781 19.9375 50.8066 13.2019 45.8475 8.22338H45.8473ZM27.031 49.5157C23.0927 49.5157 19.1544 48.4909 15.7995 46.4409L14.9244 46.0015L6.46444 48.1978L8.65231 39.8517L8.06891 38.973C1.65085 28.5769 4.71403 14.8125 15.2161 8.36969C25.7182 1.92706 39.2835 5.00207 45.7015 15.5447C52.1194 26.0873 49.0562 39.705 38.5543 46.1478C35.1992 48.3441 31.1152 49.5154 27.031 49.5154V49.5157ZM39.8669 33.2626L38.2624 32.5304C38.2624 32.5304 35.9288 31.5054 34.4701 30.7732C34.3241 30.7732 34.1784 30.6267 34.0324 30.6267C33.5948 30.6267 33.3031 30.7732 33.0114 30.9197C33.0114 30.9197 32.8656 31.066 30.8235 33.4089C30.6775 33.7017 30.3858 33.8482 30.0941 33.8482H29.9482C29.8024 33.8482 29.5107 33.7017 29.3648 33.5554L28.6354 33.2626C27.031 32.5304 25.5725 31.6517 24.4054 30.4804C24.1137 30.1876 23.6761 29.8947 23.3844 29.6019C22.3633 28.5769 21.3423 27.4054 20.6131 26.0876L20.4672 25.7947C20.3214 25.6482 20.3214 25.5019 20.1755 25.2091C20.1755 24.9162 20.1755 24.6234 20.3214 24.4769C20.3214 24.4769 20.9048 23.7447 21.3423 23.3056C21.6342 23.0125 21.7799 22.5734 22.0716 22.2806C22.3633 21.8412 22.5093 21.2556 22.3633 20.8162C22.2176 20.0841 20.4672 16.1306 20.0297 15.2521C19.7378 14.8127 19.4463 14.6664 19.0086 14.5199H17.4042C17.1123 14.5199 16.8208 14.6664 16.5289 14.6664L16.3829 14.8127C16.0912 14.9593 15.7995 15.2521 15.5078 15.3984C15.2161 15.6914 15.0702 15.9841 14.7785 16.2771C13.7574 17.5949 13.174 19.2056 13.174 20.8162C13.174 21.9875 13.4657 23.1591 13.9034 24.1841L14.0493 24.6234C15.3621 27.4054 17.1123 29.8947 19.4463 32.091L20.0297 32.6767C20.4672 33.116 20.9048 33.4089 21.1965 33.848C24.2597 36.4839 27.7603 38.3874 31.6986 39.4124C32.1363 39.5587 32.7197 39.5587 33.1573 39.7052H34.6158C35.3452 39.7052 36.2203 39.4124 36.8039 39.1195C37.2413 38.8267 37.533 38.8267 37.8248 38.5339L38.1167 38.2408C38.4084 37.948 38.7001 37.8017 38.9918 37.5089C39.2835 37.216 39.5752 36.9232 39.7211 36.6302C40.0128 36.0445 40.1586 35.3124 40.3045 34.5804V33.5554C40.3045 33.5554 40.1586 33.4089 39.8669 33.2626V33.2626Z" fill="white"/>
</g>
<defs>
<clipPath id="clip0_1405_478">
<rect width="53.5309" height="54.3673" fill="white" transform="translate(0.0463867 0.316406)"/>
</clipPath>
</defs>
</svg>
